<svg width="146" height="92" viewBox="0 0 146 92" fill="none" xmlns="http://www.w3.org/2000/svg">
  <path d="M53.3 11.7L70.8001 33.4L62.9001 11.7H53.3Z" fill="url(#paint0_linear)"/>
  <path d="M64.3999 11.7L72.7999 34.8L81.3999 11.7C81.3999 11.7 64.3999 11.7 64.3999 11.7Z" fill="url(#paint1_linear)"/>
  <path d="M74.7 33.9L92.6 11.6H83L74.7 33.9Z" fill="url(#paint2_linear)"/>
  <path d="M85.8 0H74.5L82.3 9.5L85.8 0Z" fill="url(#paint3_linear)"/>
  <path d="M80.8999 10.2L72.8999 0.400024L64.8999 10.2H80.8999Z" fill="url(#paint4_linear)"/>
  <path d="M71.5 0H60.2L63.7 9.6L71.5 0Z" fill="url(#paint5_linear)"/>
  <path d="M58.9001 0.900024L53.1001 10.2H62.3001L58.9001 0.900024Z" fill="url(#paint6_linear)"/>
  <path d="M92.9 10.2L87 0.900024L83.5 10.2H92.9V10.2Z" fill="url(#paint7_linear)"/>
  <path d="M10.5 66.4C10.5 70.4 14.1 69.2 14.1 70.1V70.4H0.300049V70.1C0.300049 69.1 3.90005 70.5 3.90005 66V47.6C3.90005 44 0.300049 45.2 0.300049 44.3V44H14.1V44.3C14.1 45.2 10.4 44.2 10.4 47.6V55.9H11.5C15.6 55.9 17 52.7 18.5 48L18.9 47.1C19.5 45.1 20.6 43.4 23.1 43.4C25 43.4 26.4 44.8 26.4 46.2C26.4 47.7 25.1 48.9 23.5 48.9C22.2 48.9 20.4 48.3 20.1 46.2C18.8001 48.8 17.8 54.2 14.6 55.8V56.1C19.6 56.1 21.6 57.9 23.3 62.4C25.2 67.5 26.1 69.8 27.9 69.8C28.2 69.8 28.4 69.8 28.8 69.7L28.9 70.3C27.6 70.8 26.1 71.1 24.4 71.1C20.7 71.1 19.4 69.3 18.3 66.9C16.8 63.5 16.3 60 14.7 58C14.2 57.2 13.2 56.9 11.9 56.9H10.5V66.4Z" fill="#E4B475"/>
  <path d="M48.2 62.1H38.4L37.0999 65.4C36.9999 65.8 36.5999 66.8 36.5999 67.2C36.5999 70 40.2999 69.2 40.2999 70V70.3H30.7V70C30.7 69 34.2999 70.4 36.0999 65.5C38.2999 59.8 40.4 54.3 42.5 48.5C42.8 47.9 42.9 47.4 42.9 47C42.9 44.3 39.2 45.1 39.2 44.2V43.9H47.7999L56.5 66.5C57.9 70.1 60.2 69.3 60.2 70.1V70.4H47.4V70.1C47.4 69.3 50.0999 69.8 50.0999 67.9C50.0999 67.5 49.9999 66.9 49.5999 65.9L48.2 62.1ZM43.2 49L38.7 61.4H48L43.5999 49H43.2Z" fill="#E4B475"/>
  <path d="M107.2 62.1H97.4L96.1 65.4C96 65.8 95.7 66.8 95.7 67.2C95.7 70 99.4 69.2 99.4 70V70.3H89.8V70C89.8 69 93.4 70.4 95.2 65.5C97.4 59.8 99.5 54.3 101.6 48.5C101.9 47.9 102 47.4 102 47C102 44.3 98.3 45.1 98.3 44.2V43.9H106.9L115.5 66.5C116.9 70.1 119.2 69.3 119.2 70.1V70.4H106.7V70.1C106.7 69.3 109.4 69.8 109.4 67.9C109.4 67.5 109.3 66.9 108.9 65.9L107.2 62.1ZM102.2 49L97.6 61.4H106.9L102.4 49H102.2Z" fill="#E4B475"/>
  <path d="M144.7 43.2L145.7 52.8C145.7 52.8 145.6 52.8 145.4 52.8C145 52.8 144.9 52.5 144.8 52C142.9 46.6 141.1 44.6 136.8 44.6H135.8C135.8 51.9 135.8 59 135.8 66.3C135.8 70.3 139.6 69.1 139.6 70V70.3H125.7V70C125.7 69.1 129.4 70.3 129.4 66.2V44.7H128.4C124.2 44.7 122.3 46.7 120.4 52.1C120.3 52.6 120 52.9 119.8 52.9C119.8 52.9 119.7 52.9 119.5 52.9L120.5 43.3C123.7 44.1 126.9 44.2 132.5 44.2C138.3 43.9 141.5 43.8 144.7 43.2Z" fill="#E4B475"/>
  <path d="M87.7 68.8C87.1 69.6 86.3 70.1 85.5 70.5C84.7 70.9 83.9001 71 82.8001 71C81.4001 71 80.2001 70.7 79.4001 70.1C78.6001 69.5 78 68.4 77.7 66.9L77 63.2C76.6 61.4 76.2001 60 75.9001 59.1C75.4001 58.2 74.6 57.8 73.6 57.8H71.2V66.5C71.2 67.4 71.3 68.2 71.5 68.5C71.6 68.9 71.9001 69.3 72.3001 69.4C72.7001 69.5 74.2 69.5 74.1 70.2V70.3H62.3V70C62.3 69.6 63.7 69.5 64.1 69.4C64.5 69.3 64.7001 69 64.9001 68.5C65.0001 68.1 65.2 67.4 65.2 66.5V48C65.2 47.1 65.1001 46.3 64.9001 46C64.8001 45.6 64.5 45.2 64.1 45.1C63.7 45 62.3 44.8 62.3 44.5V44.1C63.6 44.2 65.5 44.2 68 44.2H72.2C72.7 44.2 73.2 44.2 74 44.2C77.4 44.2 80.0001 44.7 81.8001 45.9C83.6001 47 84.4001 48.6 84.4001 50.8C84.4001 52.6 83.8 54.1 82.5 55.5C81.2 56.9 79.1 57.7 76.1 58.1C78.4 58.4 80.1 58.7 81.1 59.5C82.2 60.3 82.9001 61.4 83.3001 62.9L84.2 66.7C84.5 67.7 84.6001 68.4 84.8001 68.7C85.0001 69 85.4001 69.3 85.9001 69.3C86.2001 69.3 86.4 69.2 86.7 69C87 68.8 87.2 68.6 87.5 68.4L87.7 68.8ZM71.9001 45C71.6001 45.2 71.3 45.5 71.2 46C71.1 46.5 71 47.1 71 48V57.2H72.7C74.7 57.2 76.1001 56.7 76.9001 55.5C77.7001 54.4 78 53 78 51C78 49 77.6001 47.4 76.9001 46.4C76.2001 45.4 74.9 44.5 73.5 44.6C72.4 44.6 72.3001 44.8 71.9001 45Z" fill="#E4B475"/>
  <path d="M25.0334 84.4504H23.1965V87.614H22.1599V79.7937H24.7488C25.6296 79.7937 26.3064 79.9942 26.7791 80.3952C27.2553 80.7963 27.4934 81.3799 27.4934 82.1462C27.4934 82.6332 27.3609 83.0575 27.0959 83.4192C26.8346 83.7808 26.4693 84.0512 26.0002 84.2302L27.8372 87.5495V87.614H26.7307L25.0334 84.4504ZM23.1965 83.6071H24.781C25.2931 83.6071 25.6995 83.4747 26.0002 83.2097C26.3046 82.9447 26.4568 82.5902 26.4568 82.1462C26.4568 81.6628 26.3118 81.2922 26.0217 81.0344C25.7353 80.7766 25.3199 80.6459 24.7756 80.6423H23.1965V83.6071ZM36.0925 83.9992H32.7034V86.7707H36.6404V87.614H31.6721V79.7937H36.5867V80.6423H32.7034V83.156H36.0925V83.9992ZM45.8411 80.6423H43.3274V87.614H42.3015V80.6423H39.7932V79.7937H45.8411V80.6423ZM53.8333 85.573H50.5569L49.821 87.614H48.7576L51.7439 79.7937H52.6462L55.6379 87.614H54.5798L53.8333 85.573ZM50.8684 84.7243H53.5271L52.1951 81.0666L50.8684 84.7243ZM60.5256 87.614H59.4944V79.7937H60.5256V87.614ZM66.1814 86.7707H69.8875V87.614H65.1448V79.7937H66.1814V86.7707Z" fill="#E4B475"/>
  <path d="M84.0637 87.6135H83.0271V83.9987H79.0847V87.6135H78.0535V79.7932H79.0847V83.1555H83.0271V79.7932H84.0637V87.6135ZM94.6394 83.9558C94.6394 84.7221 94.5105 85.3917 94.2527 85.9646C93.9949 86.5339 93.6296 86.969 93.157 87.2697C92.6843 87.5705 92.1329 87.7209 91.5027 87.7209C90.8868 87.7209 90.3407 87.5705 89.8645 87.2697C89.3883 86.9654 89.0177 86.5339 88.7527 85.9753C88.4913 85.4131 88.357 84.7632 88.3499 84.0256V83.4616C88.3499 82.7097 88.4806 82.0455 88.7419 81.469C89.0033 80.8925 89.3722 80.452 89.8484 80.1477C90.3282 79.8397 90.8761 79.6858 91.4919 79.6858C92.1186 79.6858 92.67 79.8379 93.1462 80.1423C93.6261 80.4431 93.9949 80.8817 94.2527 81.4582C94.5105 82.0311 94.6394 82.6989 94.6394 83.4616V83.9558ZM93.6135 83.4509C93.6135 82.5235 93.4273 81.8127 93.0549 81.3186C92.6825 80.8209 92.1615 80.572 91.4919 80.572C90.8403 80.572 90.3264 80.8209 89.9504 81.3186C89.578 81.8127 89.3865 82.5002 89.3757 83.3811V83.9558C89.3757 84.8545 89.5637 85.5617 89.9397 86.0774C90.3193 86.5894 90.8403 86.8454 91.5027 86.8454C92.1687 86.8454 92.6843 86.6037 93.0496 86.1203C93.4148 85.6334 93.6028 84.9369 93.6135 84.031V83.4509ZM104.42 79.7932V85.1106C104.417 85.8482 104.184 86.4515 103.722 86.9206C103.264 87.3897 102.641 87.6529 101.853 87.7102L101.579 87.7209C100.723 87.7209 100.041 87.49 99.5325 87.028C99.024 86.5661 98.7662 85.9306 98.759 85.1213V79.7932H99.7795V85.0891C99.7795 85.6548 99.9353 86.0953 100.247 86.4104C100.558 86.7219 101.002 86.8777 101.579 86.8777C102.163 86.8777 102.608 86.7219 102.916 86.4104C103.228 86.0988 103.384 85.6602 103.384 85.0945V79.7932H104.42ZM111.08 84.1277C110.196 83.8734 109.551 83.5619 109.147 83.1931C108.746 82.8207 108.545 82.3624 108.545 81.8181C108.545 81.2022 108.79 80.6937 109.281 80.2927C109.775 79.8881 110.416 79.6858 111.204 79.6858C111.741 79.6858 112.219 79.7896 112.638 79.9973C113.06 80.205 113.386 80.4914 113.615 80.8567C113.848 81.2219 113.965 81.6211 113.965 82.0544H112.928C112.928 81.5818 112.778 81.2112 112.477 80.9426C112.176 80.6705 111.752 80.5344 111.204 80.5344C110.695 80.5344 110.298 80.6472 110.011 80.8728C109.729 81.0948 109.587 81.4045 109.587 81.802C109.587 82.1207 109.721 82.391 109.99 82.613C110.262 82.8314 110.722 83.032 111.37 83.2146C112.022 83.3972 112.531 83.5995 112.896 83.8215C113.265 84.0399 113.537 84.2959 113.712 84.5896C113.891 84.8832 113.981 85.2287 113.981 85.6262C113.981 86.26 113.734 86.7684 113.24 87.1516C112.745 87.5311 112.085 87.7209 111.258 87.7209C110.72 87.7209 110.219 87.6189 109.754 87.4148C109.288 87.2071 108.928 86.9242 108.674 86.5661C108.423 86.2081 108.298 85.8016 108.298 85.3469H109.335C109.335 85.8195 109.508 86.1937 109.856 86.4695C110.207 86.7416 110.674 86.8777 111.258 86.8777C111.802 86.8777 112.219 86.7667 112.509 86.5446C112.799 86.3226 112.944 86.0201 112.944 85.6369C112.944 85.2538 112.81 84.9584 112.541 84.7507C112.273 84.5394 111.786 84.3318 111.08 84.1277ZM122.456 83.9987H119.067V86.7702H123.004V87.6135H118.036V79.7932H122.95V80.6418H119.067V83.1555H122.456V83.9987Z" fill="#E4B475"/>
  <defs>
    <linearGradient id="paint0_linear" x1="52.3469" y1="22.6907" x2="95.2833" y2="22.0683" gradientUnits="userSpaceOnUse">
      <stop offset="0.0162699" stop-color="#BA925C"/>
      <stop offset="0.0839855" stop-color="#BE955E"/>
      <stop offset="0.1513" stop-color="#CA9F66"/>
      <stop offset="0.2183" stop-color="#DEAF71"/>
      <stop offset="0.2549" stop-color="#ECBB7A"/>
      <stop offset="0.4834" stop-color="#956F40"/>
      <stop offset="0.6336" stop-color="#C99C62"/>
      <stop offset="0.7756" stop-color="#FDCA85"/>
      <stop offset="0.8027" stop-color="#E5B677"/>
      <stop offset="0.8342" stop-color="#D2A66B"/>
      <stop offset="0.8708" stop-color="#C49B62"/>
      <stop offset="0.9166" stop-color="#BC945D"/>
      <stop offset="1" stop-color="#BA925C"/>
    </linearGradient>
    <linearGradient id="paint1_linear" x1="52.3585" y1="23.4855" x2="95.2947" y2="22.8631" gradientUnits="userSpaceOnUse">
      <stop offset="0.0162699" stop-color="#BA925C"/>
      <stop offset="0.0839855" stop-color="#BE955E"/>
      <stop offset="0.1513" stop-color="#CA9F66"/>
      <stop offset="0.2183" stop-color="#DEAF71"/>
      <stop offset="0.2549" stop-color="#ECBB7A"/>
      <stop offset="0.4834" stop-color="#956F40"/>
      <stop offset="0.6336" stop-color="#C99C62"/>
      <stop offset="0.7756" stop-color="#FDCA85"/>
      <stop offset="0.8027" stop-color="#E5B677"/>
      <stop offset="0.8342" stop-color="#D2A66B"/>
      <stop offset="0.8708" stop-color="#C49B62"/>
      <stop offset="0.9166" stop-color="#BC945D"/>
      <stop offset="1" stop-color="#BA925C"/>
    </linearGradient>
    <linearGradient id="paint2_linear" x1="52.3536" y1="23.1341" x2="95.2898" y2="22.5117" gradientUnits="userSpaceOnUse">
      <stop offset="0.0162699" stop-color="#BA925C"/>
      <stop offset="0.0839855" stop-color="#BE955E"/>
      <stop offset="0.1513" stop-color="#CA9F66"/>
      <stop offset="0.2183" stop-color="#DEAF71"/>
      <stop offset="0.2549" stop-color="#ECBB7A"/>
      <stop offset="0.4834" stop-color="#956F40"/>
      <stop offset="0.6336" stop-color="#C99C62"/>
      <stop offset="0.7756" stop-color="#FDCA85"/>
      <stop offset="0.8027" stop-color="#E5B677"/>
      <stop offset="0.8342" stop-color="#D2A66B"/>
      <stop offset="0.8708" stop-color="#C49B62"/>
      <stop offset="0.9166" stop-color="#BC945D"/>
      <stop offset="1" stop-color="#BA925C"/>
    </linearGradient>
    <linearGradient id="paint3_linear" x1="52.0925" y1="5.1314" x2="95.0287" y2="4.509" gradientUnits="userSpaceOnUse">
      <stop offset="0.0162699" stop-color="#BA925C"/>
      <stop offset="0.0839855" stop-color="#BE955E"/>
      <stop offset="0.1513" stop-color="#CA9F66"/>
      <stop offset="0.2183" stop-color="#DEAF71"/>
      <stop offset="0.2549" stop-color="#ECBB7A"/>
      <stop offset="0.4834" stop-color="#956F40"/>
      <stop offset="0.6336" stop-color="#C99C62"/>
      <stop offset="0.7756" stop-color="#FDCA85"/>
      <stop offset="0.8027" stop-color="#E5B677"/>
      <stop offset="0.8342" stop-color="#D2A66B"/>
      <stop offset="0.8708" stop-color="#C49B62"/>
      <stop offset="0.9166" stop-color="#BC945D"/>
      <stop offset="1" stop-color="#BA925C"/>
    </linearGradient>
    <linearGradient id="paint4_linear" x1="52.1001" y1="5.65962" x2="95.0362" y2="5.03712" gradientUnits="userSpaceOnUse">
      <stop offset="0.0162699" stop-color="#BA925C"/>
      <stop offset="0.0839855" stop-color="#BE955E"/>
      <stop offset="0.1513" stop-color="#CA9F66"/>
      <stop offset="0.2183" stop-color="#DEAF71"/>
      <stop offset="0.2549" stop-color="#ECBB7A"/>
      <stop offset="0.4834" stop-color="#956F40"/>
      <stop offset="0.6336" stop-color="#C99C62"/>
      <stop offset="0.7756" stop-color="#FDCA85"/>
      <stop offset="0.8027" stop-color="#E5B677"/>
      <stop offset="0.8342" stop-color="#D2A66B"/>
      <stop offset="0.8708" stop-color="#C49B62"/>
      <stop offset="0.9166" stop-color="#BC945D"/>
      <stop offset="1" stop-color="#BA925C"/>
    </linearGradient>
    <linearGradient id="paint5_linear" x1="52.0898" y1="4.943" x2="95.0259" y2="4.3204" gradientUnits="userSpaceOnUse">
      <stop offset="0.0162699" stop-color="#BA925C"/>
      <stop offset="0.0839855" stop-color="#BE955E"/>
      <stop offset="0.1513" stop-color="#CA9F66"/>
      <stop offset="0.2183" stop-color="#DEAF71"/>
      <stop offset="0.2549" stop-color="#ECBB7A"/>
      <stop offset="0.4834" stop-color="#956F40"/>
      <stop offset="0.6336" stop-color="#C99C62"/>
      <stop offset="0.7756" stop-color="#FDCA85"/>
      <stop offset="0.8027" stop-color="#E5B677"/>
      <stop offset="0.8342" stop-color="#D2A66B"/>
      <stop offset="0.8708" stop-color="#C49B62"/>
      <stop offset="0.9166" stop-color="#BC945D"/>
      <stop offset="1" stop-color="#BA925C"/>
    </linearGradient>
    <linearGradient id="paint6_linear" x1="52.1005" y1="5.67332" x2="95.0367" y2="5.05062" gradientUnits="userSpaceOnUse">
      <stop offset="0.0162699" stop-color="#BA925C"/>
      <stop offset="0.0839855" stop-color="#BE955E"/>
      <stop offset="0.1513" stop-color="#CA9F66"/>
      <stop offset="0.2183" stop-color="#DEAF71"/>
      <stop offset="0.2549" stop-color="#ECBB7A"/>
      <stop offset="0.4834" stop-color="#956F40"/>
      <stop offset="0.6336" stop-color="#C99C62"/>
      <stop offset="0.7756" stop-color="#FDCA85"/>
      <stop offset="0.8027" stop-color="#E5B677"/>
      <stop offset="0.8342" stop-color="#D2A66B"/>
      <stop offset="0.8708" stop-color="#C49B62"/>
      <stop offset="0.9166" stop-color="#BC945D"/>
      <stop offset="1" stop-color="#BA925C"/>
    </linearGradient>
    <linearGradient id="paint7_linear" x1="52.1065" y1="6.09872" x2="95.0426" y2="5.47622" gradientUnits="userSpaceOnUse">
      <stop offset="0.0162699" stop-color="#BA925C"/>
      <stop offset="0.0839855" stop-color="#BE955E"/>
      <stop offset="0.1513" stop-color="#CA9F66"/>
      <stop offset="0.2183" stop-color="#DEAF71"/>
      <stop offset="0.2549" stop-color="#ECBB7A"/>
      <stop offset="0.4834" stop-color="#956F40"/>
      <stop offset="0.6336" stop-color="#C99C62"/>
      <stop offset="0.7756" stop-color="#FDCA85"/>
      <stop offset="0.8027" stop-color="#E5B677"/>
      <stop offset="0.8342" stop-color="#D2A66B"/>
      <stop offset="0.8708" stop-color="#C49B62"/>
      <stop offset="0.9166" stop-color="#BC945D"/>
      <stop offset="1" stop-color="#BA925C"/>
    </linearGradient>
  </defs>
</svg>
