<svg width="156" height="28" viewBox="0 0 156 28" fill="none" xmlns="http://www.w3.org/2000/svg">
  <path d="M0.131348 9.92993L13.7584 26.8672L7.58021 9.92993H0.131348Z" fill="url(#paint0_linear)"/>
  <path d="M8.80713 9.92993L15.3797 27.9614L22.0836 9.92993H8.80713Z" fill="url(#paint1_linear)"/>
  <path d="M16.8257 27.3049L30.8033 9.92993H23.3106L16.8257 27.3049Z" fill="url(#paint2_linear)"/>
  <path d="M25.5015 0.826691H16.6943L22.7411 8.26684L25.5015 0.826691Z" fill="url(#paint3_linear)"/>
  <path d="M21.6891 8.79203L15.4671 1.17682L9.24512 8.79203H21.6891Z" fill="url(#paint4_linear)"/>
  <path d="M14.2842 0.826691H5.47705L8.1937 8.31061L14.2842 0.826691Z" fill="url(#paint5_linear)"/>
  <path d="M4.51314 1.52695L0 8.79204H7.18597L4.51314 1.52695Z" fill="url(#paint6_linear)"/>
  <path d="M30.9787 8.79204L26.4217 1.52695L23.7051 8.79204H30.9787Z" fill="url(#paint7_linear)"/>
  <path d="M49.9633 21.4169C49.9633 24.5243 52.8552 23.6052 52.8552 24.3492V24.5243H42.1201V24.3492C42.1201 23.5615 44.9682 24.6118 44.9682 21.1106V6.71171C44.9682 3.95448 42.1201 4.82979 42.1201 4.08577V3.86695H52.8991V4.08577C52.8991 4.82979 49.9633 3.99824 49.9633 6.71171V13.189H50.8397C53.9945 13.189 55.1337 10.6944 56.3606 6.9743L56.6235 6.27405C57.1931 4.74226 57.9818 3.42929 59.9536 3.42929C61.4872 3.42929 62.5826 4.5672 62.5826 5.66134C62.5826 6.88677 61.6186 7.80585 60.2603 7.80585C59.2963 7.80585 57.8504 7.28066 57.5436 5.7051C56.5797 7.71832 55.791 11.9636 53.2058 13.189V13.3641C57.1493 13.3641 58.7267 14.7208 59.9974 18.2221C61.4872 22.2485 62.1882 24.0429 63.6342 24.0429C63.8095 24.0429 64.0285 23.9991 64.2914 23.9554L64.3791 24.4805C63.5027 24.7869 62.2759 25.0495 61.0052 25.0495C58.1133 25.0495 57.0617 23.649 56.2291 21.7233C55.0023 19.0098 54.6517 16.3401 53.381 14.7208C52.9429 14.1519 52.198 13.8455 51.1464 13.8455H50.051V21.4169H49.9633Z" fill="#E4B475"/>
  <path d="M81.0731 18.047H73.4052L72.4412 20.6729C72.3097 20.9793 72.0906 21.7233 72.0906 22.0734C72.0906 24.2617 75.0264 23.649 75.0264 24.3055V24.4805H67.5337V24.3055C67.5337 23.5177 70.338 24.5681 71.7401 20.8042C73.4051 16.3401 75.114 11.9636 76.779 7.54326C76.9543 7.06184 77.0419 6.66794 77.0419 6.31782C77.0419 4.21707 74.15 4.78602 74.15 4.08577V3.82318H80.8102L87.4704 21.5045C88.5658 24.3055 90.3623 23.6928 90.3623 24.3055V24.4805H80.5035V24.3055C80.5035 23.7365 82.6067 24.1304 82.6067 22.5986C82.6067 22.2923 82.4752 21.8108 82.1685 20.9793L81.0731 18.047ZM77.1296 7.84961L73.5804 17.5218H80.8978L77.3487 7.84961H77.1296Z" fill="#E4B475"/>
  <path d="M96.3215 6.79924C96.3215 3.86694 93.3857 4.82979 93.3857 4.04201V3.82318H103.814C108.809 3.82318 112.665 5.7051 112.665 9.9066C112.665 14.3707 108.503 16.2526 104.121 16.2526C103.201 16.2526 102.149 16.2088 101.229 16.0338C101.229 17.8282 101.273 19.5788 101.273 21.3732C101.273 24.4805 104.209 23.5615 104.209 24.3055V24.4805H93.3857V24.3055C93.3857 23.6052 96.3215 24.4368 96.3215 21.3294V6.79924ZM101.273 15.5086C101.536 15.5524 101.799 15.5961 102.061 15.5961C105.392 15.5961 107.32 13.4078 107.32 9.95036C107.32 6.40535 105.26 4.39213 102.543 4.39213H101.273V15.5086Z" fill="#E4B475"/>
  <path d="M125.81 18.047H118.142L117.178 20.6729C117.047 20.9793 116.828 21.7233 116.828 22.0734C116.828 24.2617 119.764 23.649 119.764 24.3055V24.4805H112.227V24.3055C112.227 23.5177 115.031 24.5681 116.433 20.8042C118.099 16.3401 119.807 11.9636 121.472 7.54326C121.648 7.06184 121.735 6.66794 121.735 6.31782C121.735 4.21707 118.843 4.78602 118.843 4.08577V3.82318H125.504L132.164 21.5045C133.259 24.3055 135.056 23.6928 135.056 24.3055V24.4805H125.241V24.3055C125.241 23.7365 127.344 24.1304 127.344 22.5986C127.344 22.2923 127.212 21.8108 126.906 20.9793L125.81 18.047ZM121.911 7.84961L118.361 17.5218H125.679L122.13 7.84961H121.911Z" fill="#E4B475"/>
  <path d="M155.168 3.16669L156 10.6944C155.956 10.7381 155.913 10.7381 155.825 10.7381C155.562 10.7381 155.431 10.5631 155.299 10.1692C153.809 5.92392 152.363 4.39212 149.033 4.39212H148.245C148.245 10.0816 148.288 15.6836 148.288 21.3732C148.288 24.4805 151.312 23.5615 151.312 24.3055V24.4805H140.401V24.3055C140.401 23.5615 143.337 24.4805 143.337 21.3294V4.39212H142.548C139.218 4.39212 137.772 5.96768 136.283 10.1692C136.151 10.5193 136.02 10.7381 135.757 10.7381C135.713 10.7381 135.669 10.7381 135.582 10.6944L136.414 3.16669C138.868 3.73564 141.365 3.82317 145.791 3.82317C150.216 3.82317 152.714 3.73564 155.168 3.16669Z" fill="#E4B475"/>
  <defs>
    <linearGradient id="paint0_linear" x1="-0.620155" y1="18.5186" x2="32.8701" y2="18.0331" gradientUnits="userSpaceOnUse">
      <stop offset="0.0162699" stop-color="#BA925C"/>
      <stop offset="0.0839855" stop-color="#BE955E"/>
      <stop offset="0.1513" stop-color="#CA9F66"/>
      <stop offset="0.2183" stop-color="#DEAF71"/>
      <stop offset="0.2549" stop-color="#ECBB7A"/>
      <stop offset="0.4834" stop-color="#956F40"/>
      <stop offset="0.6336" stop-color="#C99C62"/>
      <stop offset="0.7756" stop-color="#FDCA85"/>
      <stop offset="0.8027" stop-color="#E5B677"/>
      <stop offset="0.8342" stop-color="#D2A66B"/>
      <stop offset="0.8708" stop-color="#C49B62"/>
      <stop offset="0.9166" stop-color="#BC945D"/>
      <stop offset="1" stop-color="#BA925C"/>
    </linearGradient>
    <linearGradient id="paint1_linear" x1="-0.611038" y1="19.1411" x2="32.8792" y2="18.6557" gradientUnits="userSpaceOnUse">
      <stop offset="0.0162699" stop-color="#BA925C"/>
      <stop offset="0.0839855" stop-color="#BE955E"/>
      <stop offset="0.1513" stop-color="#CA9F66"/>
      <stop offset="0.2183" stop-color="#DEAF71"/>
      <stop offset="0.2549" stop-color="#ECBB7A"/>
      <stop offset="0.4834" stop-color="#956F40"/>
      <stop offset="0.6336" stop-color="#C99C62"/>
      <stop offset="0.7756" stop-color="#FDCA85"/>
      <stop offset="0.8027" stop-color="#E5B677"/>
      <stop offset="0.8342" stop-color="#D2A66B"/>
      <stop offset="0.8708" stop-color="#C49B62"/>
      <stop offset="0.9166" stop-color="#BC945D"/>
      <stop offset="1" stop-color="#BA925C"/>
    </linearGradient>
    <linearGradient id="paint2_linear" x1="-0.613993" y1="18.9277" x2="32.8761" y2="18.4423" gradientUnits="userSpaceOnUse">
      <stop offset="0.0162699" stop-color="#BA925C"/>
      <stop offset="0.0839855" stop-color="#BE955E"/>
      <stop offset="0.1513" stop-color="#CA9F66"/>
      <stop offset="0.2183" stop-color="#DEAF71"/>
      <stop offset="0.2549" stop-color="#ECBB7A"/>
      <stop offset="0.4834" stop-color="#956F40"/>
      <stop offset="0.6336" stop-color="#C99C62"/>
      <stop offset="0.7756" stop-color="#FDCA85"/>
      <stop offset="0.8027" stop-color="#E5B677"/>
      <stop offset="0.8342" stop-color="#D2A66B"/>
      <stop offset="0.8708" stop-color="#C49B62"/>
      <stop offset="0.9166" stop-color="#BC945D"/>
      <stop offset="1" stop-color="#BA925C"/>
    </linearGradient>
    <linearGradient id="paint3_linear" x1="-0.818059" y1="4.85085" x2="32.6722" y2="4.36536" gradientUnits="userSpaceOnUse">
      <stop offset="0.0162699" stop-color="#BA925C"/>
      <stop offset="0.0839855" stop-color="#BE955E"/>
      <stop offset="0.1513" stop-color="#CA9F66"/>
      <stop offset="0.2183" stop-color="#DEAF71"/>
      <stop offset="0.2549" stop-color="#ECBB7A"/>
      <stop offset="0.4834" stop-color="#956F40"/>
      <stop offset="0.6336" stop-color="#C99C62"/>
      <stop offset="0.7756" stop-color="#FDCA85"/>
      <stop offset="0.8027" stop-color="#E5B677"/>
      <stop offset="0.8342" stop-color="#D2A66B"/>
      <stop offset="0.8708" stop-color="#C49B62"/>
      <stop offset="0.9166" stop-color="#BC945D"/>
      <stop offset="1" stop-color="#BA925C"/>
    </linearGradient>
    <linearGradient id="paint4_linear" x1="-0.812296" y1="5.2728" x2="32.6779" y2="4.78722" gradientUnits="userSpaceOnUse">
      <stop offset="0.0162699" stop-color="#BA925C"/>
      <stop offset="0.0839855" stop-color="#BE955E"/>
      <stop offset="0.1513" stop-color="#CA9F66"/>
      <stop offset="0.2183" stop-color="#DEAF71"/>
      <stop offset="0.2549" stop-color="#ECBB7A"/>
      <stop offset="0.4834" stop-color="#956F40"/>
      <stop offset="0.6336" stop-color="#C99C62"/>
      <stop offset="0.7756" stop-color="#FDCA85"/>
      <stop offset="0.8027" stop-color="#E5B677"/>
      <stop offset="0.8342" stop-color="#D2A66B"/>
      <stop offset="0.8708" stop-color="#C49B62"/>
      <stop offset="0.9166" stop-color="#BC945D"/>
      <stop offset="1" stop-color="#BA925C"/>
    </linearGradient>
    <linearGradient id="paint5_linear" x1="-0.820612" y1="4.68629" x2="32.6696" y2="4.20071" gradientUnits="userSpaceOnUse">
      <stop offset="0.0162699" stop-color="#BA925C"/>
      <stop offset="0.0839855" stop-color="#BE955E"/>
      <stop offset="0.1513" stop-color="#CA9F66"/>
      <stop offset="0.2183" stop-color="#DEAF71"/>
      <stop offset="0.2549" stop-color="#ECBB7A"/>
      <stop offset="0.4834" stop-color="#956F40"/>
      <stop offset="0.6336" stop-color="#C99C62"/>
      <stop offset="0.7756" stop-color="#FDCA85"/>
      <stop offset="0.8027" stop-color="#E5B677"/>
      <stop offset="0.8342" stop-color="#D2A66B"/>
      <stop offset="0.8708" stop-color="#C49B62"/>
      <stop offset="0.9166" stop-color="#BC945D"/>
      <stop offset="1" stop-color="#BA925C"/>
    </linearGradient>
    <linearGradient id="paint6_linear" x1="-0.812189" y1="5.26383" x2="32.6781" y2="4.77825" gradientUnits="userSpaceOnUse">
      <stop offset="0.0162699" stop-color="#BA925C"/>
      <stop offset="0.0839855" stop-color="#BE955E"/>
      <stop offset="0.1513" stop-color="#CA9F66"/>
      <stop offset="0.2183" stop-color="#DEAF71"/>
      <stop offset="0.2549" stop-color="#ECBB7A"/>
      <stop offset="0.4834" stop-color="#956F40"/>
      <stop offset="0.6336" stop-color="#C99C62"/>
      <stop offset="0.7756" stop-color="#FDCA85"/>
      <stop offset="0.8027" stop-color="#E5B677"/>
      <stop offset="0.8342" stop-color="#D2A66B"/>
      <stop offset="0.8708" stop-color="#C49B62"/>
      <stop offset="0.9166" stop-color="#BC945D"/>
      <stop offset="1" stop-color="#BA925C"/>
    </linearGradient>
    <linearGradient id="paint7_linear" x1="-0.807214" y1="5.59452" x2="32.683" y2="5.10903" gradientUnits="userSpaceOnUse">
      <stop offset="0.0162699" stop-color="#BA925C"/>
      <stop offset="0.0839855" stop-color="#BE955E"/>
      <stop offset="0.1513" stop-color="#CA9F66"/>
      <stop offset="0.2183" stop-color="#DEAF71"/>
      <stop offset="0.2549" stop-color="#ECBB7A"/>
      <stop offset="0.4834" stop-color="#956F40"/>
      <stop offset="0.6336" stop-color="#C99C62"/>
      <stop offset="0.7756" stop-color="#FDCA85"/>
      <stop offset="0.8027" stop-color="#E5B677"/>
      <stop offset="0.8342" stop-color="#D2A66B"/>
      <stop offset="0.8708" stop-color="#C49B62"/>
      <stop offset="0.9166" stop-color="#BC945D"/>
      <stop offset="1" stop-color="#BA925C"/>
    </linearGradient>
  </defs>
</svg>
