<svg width="146" height="92" viewBox="0 0 146 92" fill="none" xmlns="http://www.w3.org/2000/svg">
  <path d="M10.0554 67.1072C10.0554 71.091 13.763 69.9127 13.763 70.8666V71.091H0V70.8666C0 69.8566 3.6514 71.2033 3.6514 66.7145V48.2544C3.6514 44.7195 0 45.8417 0 44.8878V44.6072H13.8192V44.8878C13.8192 45.8417 10.0554 44.7756 10.0554 48.2544V56.5586H11.1789C15.2235 56.5586 16.6841 53.3604 18.257 48.591L18.5941 47.6933C19.3244 45.7294 20.3355 44.0461 22.8634 44.0461C24.8295 44.0461 26.2339 45.505 26.2339 46.9077C26.2339 48.4788 24.9981 49.6571 23.2566 49.6571C22.0208 49.6571 20.167 48.9838 19.7738 46.9638C18.5379 49.5449 17.5267 54.9875 14.2124 56.5586V56.7831C19.2682 56.7831 21.2905 58.5225 22.9196 63.0112C24.8295 68.1733 25.7284 70.4738 27.5821 70.4738C27.8068 70.4738 28.0877 70.4177 28.4248 70.3616L28.5371 71.0349C27.4136 71.4277 25.8407 71.7644 24.2116 71.7644C20.504 71.7644 19.1558 69.9688 18.0885 67.5C16.5156 64.0212 16.0662 60.5985 14.4371 58.5225C13.8753 57.793 12.9204 57.4003 11.5721 57.4003H10.1678V67.1072H10.0554Z" fill="#E4B475"/>
  <path d="M49.94 62.7868H40.1093L38.8734 66.1534C38.7049 66.5461 38.424 67.5 38.424 67.9489C38.424 70.7544 42.1878 69.9688 42.1878 70.8105V71.0349H32.5818V70.8105C32.5818 69.8005 36.177 71.1471 37.9746 66.3217C40.1093 60.5985 42.3001 54.9875 44.4348 49.3204C44.6595 48.7032 44.7719 48.1982 44.7719 47.7494C44.7719 45.0561 41.0643 45.7855 41.0643 44.8878V44.5511H49.603L58.1416 67.2194C59.546 70.8105 61.8492 70.0249 61.8492 70.8105V71.0349H49.2097V70.8105C49.2097 70.081 51.9061 70.586 51.9061 68.6222C51.9061 68.2294 51.7376 67.6122 51.3444 66.5461L49.94 62.7868ZM44.8842 49.7132L40.334 62.1135H49.7153L45.1651 49.7132H44.8842Z" fill="#E4B475"/>
  <path d="M69.4891 48.3666C69.4891 44.6072 65.7253 45.8416 65.7253 44.8317V44.5511H79.0951C85.4991 44.5511 90.4425 46.9638 90.4425 52.3504C90.4425 58.0736 85.1059 60.4863 79.4883 60.4863C78.3086 60.4863 76.9604 60.4302 75.7807 60.2057C75.7807 62.5062 75.8369 64.7506 75.8369 67.0511C75.8369 71.0349 79.6007 69.8566 79.6007 70.8105V71.0349H65.7253V70.8105C65.7253 69.9127 69.4891 70.9788 69.4891 66.995V48.3666ZM75.8369 59.5324C76.174 59.5885 76.511 59.6446 76.8481 59.6446C81.1174 59.6446 83.5891 56.8391 83.5891 52.4065C83.5891 47.8616 80.9489 45.2805 77.466 45.2805H75.8369V59.5324Z" fill="#E4B475"/>
  <path d="M107.295 62.7868H97.4643L96.2284 66.1534C96.0599 66.5461 95.779 67.5 95.779 67.9489C95.779 70.7544 99.5428 69.9688 99.5428 70.8105V71.0349H89.8806V70.8105C89.8806 69.8005 93.4758 71.1471 95.2735 66.3217C97.4081 60.5985 99.599 54.9875 101.734 49.3204C101.958 48.7032 102.071 48.1982 102.071 47.7494C102.071 45.0561 98.3631 45.7855 98.3631 44.8878V44.5511H106.902L115.44 67.2194C116.845 70.8105 119.148 70.0249 119.148 70.8105V71.0349H106.565V70.8105C106.565 70.081 109.261 70.586 109.261 68.6222C109.261 68.2294 109.093 67.6122 108.699 66.5461L107.295 62.7868ZM102.295 49.7132L97.7452 62.1135H107.126L102.576 49.7132H102.295Z" fill="#E4B475"/>
  <path d="M144.933 43.7095L146 53.3603C145.944 53.4165 145.888 53.4165 145.775 53.4165C145.438 53.4165 145.27 53.192 145.101 52.687C143.191 47.2444 141.337 45.2805 137.068 45.2805H136.057C136.057 52.5748 136.113 59.7569 136.113 67.0511C136.113 71.0349 139.989 69.8566 139.989 70.8105V71.0349H126.002V70.8105C126.002 69.8566 129.765 71.0349 129.765 66.995V45.2805H128.754C124.485 45.2805 122.631 47.3005 120.721 52.687C120.553 53.1359 120.384 53.4165 120.047 53.4165C119.991 53.4165 119.935 53.4165 119.822 53.3603L120.89 43.7095C124.035 44.4389 127.237 44.5511 132.911 44.5511C138.585 44.5511 141.787 44.4389 144.933 43.7095Z" fill="#E4B475"/>
  <path d="M27.2284 83.5329C27.2284 83.5329 27.1485 83.4532 26.8291 83.2139C26.5896 83.0544 26.1903 82.9746 25.7112 82.9746H25.2321V85.5268C25.2321 88.5576 25.312 88.5576 25.4717 89.0362L25.5515 89.1957C25.5515 89.1957 25.1523 89.1957 24.1142 89.1957C23.156 89.1957 22.6769 89.1957 22.6769 89.1957L22.7567 89.0362C22.9963 88.6374 22.9963 88.5576 22.9963 85.4471V82.9746H22.5172C22.0381 82.9746 21.6388 83.0544 21.3993 83.2139C21.1597 83.3734 21.0799 83.4532 21 83.5329C21 83.5329 21 83.2139 21 82.6556C21 82.0973 21 81.858 21 81.858H27.1485C27.1485 81.858 27.1485 82.0973 27.1485 82.6556C27.2284 83.2139 27.2284 83.5329 27.2284 83.5329Z" fill="#E4B475"/>
  <path d="M32.8179 89.3552C30.4224 89.3552 29.2246 88.0791 29.2246 85.6066C29.2246 83.1341 30.4224 81.6985 32.7381 81.6985C35.1336 81.6985 36.3314 82.9746 36.3314 85.4471C36.3314 87.9196 35.1336 89.3552 32.8179 89.3552ZM32.8179 82.9746C31.7798 82.9746 31.5403 83.8519 31.5403 85.6066C31.5403 87.3613 31.7798 88.1589 32.8179 88.1589C33.856 88.1589 34.0955 87.2815 34.0955 85.5269C34.0955 83.7722 33.856 82.9746 32.8179 82.9746Z" fill="#E4B475"/>
  <path d="M41.9211 86.6435C41.5219 86.6435 41.1226 86.5637 41.1226 86.5637C41.1226 88.3982 41.2024 88.6374 41.442 89.0362L41.5219 89.1957C41.5219 89.1957 41.1226 89.1957 40.0845 89.1957C39.1263 89.1957 38.6472 89.1957 38.6472 89.1957L38.7271 89.0362C38.9666 88.6374 38.9666 88.5577 38.9666 85.4471C38.9666 82.4163 38.8868 82.4163 38.7271 81.9378L38.6472 81.7783C38.6472 81.7783 39.0465 81.7783 39.7651 81.7783C40.2442 81.7783 41.2024 81.7783 41.6017 81.7783C42.8793 81.7783 45.0353 81.858 45.0353 84.0913C45.0353 86.2447 43.2786 86.6435 41.9211 86.6435ZM41.5219 82.8949C41.2823 82.8949 41.1226 82.8949 41.1226 82.8949V85.5269C41.1226 85.5269 41.2024 85.5269 41.5219 85.5269C42.7196 85.5269 42.7196 84.6496 42.7196 84.171C42.7995 83.0544 42.0808 82.8949 41.5219 82.8949Z" fill="#E4B475"/>
  <path d="M52.2215 83.5329C52.2215 83.5329 52.1417 83.4532 51.8222 83.2139C51.5827 83.0544 51.1834 82.9746 50.7043 82.9746H49.826V86.2447C49.826 88.3184 49.9058 88.5576 50.1454 88.9564L50.2252 89.1159C50.2252 89.1159 49.826 89.1159 48.7879 89.1159C47.8297 89.1159 47.3506 89.1159 47.3506 89.1159L47.4304 88.9564C47.67 88.5576 47.67 88.4779 47.67 85.3673C47.67 82.3366 47.5901 82.3365 47.4304 81.858L47.3506 81.6985C47.3506 81.6985 47.5901 81.6985 48.1491 81.6985H52.2215C52.2215 81.6985 52.2215 81.9378 52.2215 82.4961C52.2215 83.2139 52.2215 83.5329 52.2215 83.5329Z" fill="#E4B475"/>
  <path d="M57.8111 89.3552C55.4155 89.3552 54.2178 88.0791 54.2178 85.6066C54.2178 83.1341 55.4155 81.6985 57.7312 81.6985C60.1267 81.6985 61.3245 82.9746 61.3245 85.4471C61.3245 87.9196 60.1268 89.3552 57.8111 89.3552ZM57.8111 82.9746C56.773 82.9746 56.5334 83.8519 56.5334 85.6066C56.5334 87.3613 56.773 88.1589 57.8111 88.1589C58.8491 88.1589 59.0887 87.2815 59.0887 85.5269C59.0088 83.7722 58.7693 82.9746 57.8111 82.9746Z" fill="#E4B475"/>
  <path d="M68.5909 89.0362C68.032 89.1957 67.3932 89.1957 66.4349 89.1957C66.0357 89.1957 65.0775 89.1957 64.6782 89.1957C63.9596 89.1957 63.5603 89.1957 63.5603 89.1957L63.6402 89.0362C63.8797 88.6374 63.8797 88.5577 63.8797 85.4471C63.8797 82.4163 63.7999 82.4163 63.6402 81.9378L63.5603 81.7783C63.5603 81.7783 63.9596 81.7783 64.5185 81.7783C64.8379 81.7783 65.7163 81.7783 66.1155 81.7783C67.8723 81.7783 69.629 81.858 69.629 83.533C69.629 84.9686 68.4312 85.2876 67.7924 85.2876C68.9103 85.2876 69.8685 85.7662 69.8685 87.0423C69.9484 88.3982 69.2297 88.8767 68.5909 89.0362ZM66.4349 82.8949C66.1954 82.8949 66.0357 82.8949 66.0357 82.8949V84.8888C66.0357 84.8888 66.1155 84.8888 66.4349 84.8888C66.6745 84.8888 66.9141 84.8888 67.0738 84.8091C67.3932 84.6496 67.6327 84.4103 67.6327 83.852C67.6327 83.0544 67.1536 82.8949 66.4349 82.8949ZM66.5148 86.0054C66.1954 86.0054 66.0357 86.0054 66.0357 86.0054V88.1589C66.0357 88.1589 66.1155 88.1589 66.5148 88.1589C66.8342 88.1589 67.0738 88.1589 67.2335 88.0791C67.5529 87.9196 67.7924 87.6803 67.7924 87.122C67.7924 86.1649 67.3133 86.0054 66.5148 86.0054Z" fill="#E4B475"/>
  <path d="M76.8958 89.0362C76.3368 89.1957 75.7779 89.1957 75.1391 89.1957C74.8197 89.1957 73.7816 89.1957 73.3025 89.1957C72.5838 89.1957 72.1846 89.1957 72.1846 89.1957L72.2644 89.0362C72.504 88.6374 72.504 88.5577 72.504 85.5269C72.504 82.4163 72.4241 82.3366 72.2644 81.9378L72.1846 81.7783C72.1846 81.7783 72.5838 81.7783 73.6219 81.7783C74.66 81.7783 75.0592 81.7783 75.0592 81.7783L74.9794 81.9378C74.7398 82.2568 74.6599 82.4163 74.6599 84.2508V84.3305C74.6599 84.3305 75.0592 84.2508 75.5383 84.2508C76.0174 84.2508 76.5764 84.2508 77.1353 84.4103C77.9338 84.6496 78.5727 85.2876 78.5727 86.5637C78.5727 88.0791 77.7741 88.7969 76.8958 89.0362ZM75.1391 85.4471C74.9794 85.4471 74.7398 85.4471 74.7398 85.4471V88.0791C74.7398 88.0791 74.8995 88.0791 75.1391 88.0791C75.698 88.0791 76.4167 87.9196 76.4167 86.7233C76.4167 86.0852 76.1771 85.4471 75.1391 85.4471ZM80.4092 89.1957C79.451 89.1957 78.9719 89.1957 78.9719 89.1957L79.0518 89.0362C79.2913 88.6374 79.2913 88.5577 79.2913 85.4471C79.2913 82.4163 79.2115 82.4163 79.0518 81.9378L78.9719 81.7783C78.9719 81.7783 79.3712 81.7783 80.4092 81.7783C81.4473 81.7783 81.8465 81.7783 81.8465 81.7783L81.7667 81.9378C81.5271 82.3366 81.5271 82.4163 81.5271 85.5269C81.5271 88.5577 81.607 88.5577 81.7667 89.0362L81.8465 89.1957C81.8465 89.1957 81.3674 89.1957 80.4092 89.1957Z" fill="#E4B475"/>
  <path d="M89.9912 89.1957C89.033 89.1957 88.5539 89.1957 88.5539 89.1957L88.6337 89.0362C88.7934 88.6374 88.8733 88.4779 88.8733 85.4471V84.8091L86.7972 88.2386C86.7972 88.7172 86.877 88.8767 87.0367 89.0362L87.1166 89.1957C87.1166 89.1957 86.7173 89.1957 85.6793 89.1957C84.7211 89.1957 84.2419 89.1957 84.2419 89.1957L84.3218 89.0362C84.5614 88.6374 84.5614 88.5576 84.5614 85.4471C84.5614 82.4163 84.4815 82.4163 84.3218 81.9378L84.2419 81.7783C84.2419 81.7783 84.6412 81.7783 85.6793 81.7783C86.7173 81.7783 87.1166 81.7783 87.1166 81.7783L87.0367 81.9378C86.877 82.2568 86.7972 82.4163 86.7972 85.5269V86.0852L88.8733 82.7354C88.7935 82.2568 88.7935 82.177 88.7136 81.9378L88.6337 81.7783C88.6337 81.7783 89.033 81.7783 90.0711 81.7783C91.1091 81.7783 91.5084 81.7783 91.5084 81.7783L91.4285 81.9378C91.189 82.3366 91.189 82.4163 91.189 85.5269C91.189 88.5577 91.2688 88.5576 91.4285 89.0362L91.5084 89.1957C91.3487 89.1957 90.9494 89.1957 89.9912 89.1957ZM87.8352 81.539C86.3181 81.539 85.6793 81.22 85.6793 80.5819C85.6793 79.8641 86.5576 79.8641 86.9569 79.8641C86.9569 79.8641 86.877 79.9438 86.877 80.2629C86.877 80.7414 87.2763 80.8212 87.9151 80.8212C88.4741 80.8212 88.9532 80.7414 88.9532 80.2629C88.9532 80.0236 88.8733 79.8641 88.8733 79.8641C89.3524 79.8641 90.1509 79.9438 90.1509 80.5819C90.0711 81.2997 89.4323 81.539 87.8352 81.539Z" fill="#E4B475"/>
  <path d="M103.486 91.4289V89.1957H99.0143C98.8546 91.0301 97.7367 91.4289 97.2576 91.4289V88.1589C97.8964 88.1589 98.1359 87.8398 98.4553 87.2815C98.6949 86.6435 99.174 84.8888 99.174 83.1341C99.174 82.8151 99.0941 82.177 99.0143 82.0175L98.9344 81.858C98.9344 81.858 99.3337 81.858 100.372 81.858H103.087C104.125 81.858 104.524 81.858 104.524 81.858L104.444 82.0175C104.205 82.4163 104.205 82.5758 104.205 85.6066C104.205 87.2018 104.284 87.6005 104.444 87.8398C104.604 88.0791 104.843 88.1589 105.243 88.1589H105.323V88.6374C105.243 91.0301 103.965 91.4289 103.486 91.4289ZM101.969 83.1341H100.691V83.2139C100.691 84.809 100.452 86.6435 99.8128 87.9196H101.969V83.1341Z" fill="#E4B475"/>
  <path d="M110.832 89.3552C108.437 89.3552 107.239 88.0791 107.239 85.6066C107.239 83.1341 108.437 81.6985 110.752 81.6985C113.148 81.6985 114.346 82.9746 114.346 85.4471C114.346 87.9196 113.148 89.3552 110.832 89.3552ZM110.832 82.9746C109.794 82.9746 109.555 83.8519 109.555 85.6066C109.555 87.3613 109.794 88.1589 110.832 88.1589C111.87 88.1589 112.11 87.2815 112.11 85.5269C112.03 83.7722 111.791 82.9746 110.832 82.9746Z" fill="#E4B475"/>
  <path d="M123.688 89.1957C122.73 89.1957 122.331 89.1957 122.331 89.1957L122.411 89.0362C122.57 88.6374 122.65 88.4779 122.65 85.4471V83.852C122.65 83.852 122.491 84.49 122.091 85.2876L120.574 88.5577L119.057 85.3674C118.738 84.6496 118.498 83.9317 118.498 83.852V85.5269C118.498 88.5577 118.578 88.5577 118.738 89.0362L118.817 89.1957C118.817 89.1957 118.418 89.1957 117.699 89.1957C116.981 89.1957 116.582 89.1957 116.582 89.1957L116.661 89.0362C116.901 88.6374 116.901 88.5577 116.901 85.4471C116.901 82.4163 116.821 82.4163 116.661 81.9378L116.582 81.7783C116.582 81.7783 117.22 81.7783 118.099 81.7783C119.057 81.7783 119.536 81.7783 119.536 81.7783L120.494 84.2508C120.574 84.4103 120.654 84.6496 120.654 84.6496C120.654 84.6496 120.814 84.3305 120.814 84.2508L121.932 81.7783C121.932 81.7783 122.411 81.7783 123.449 81.7783C124.567 81.7783 124.966 81.7783 124.966 81.7783L124.886 81.9378C124.647 82.3366 124.647 82.4163 124.647 85.5269C124.647 88.5577 124.726 88.5577 124.886 89.0362L124.966 89.1957C125.126 89.1957 124.726 89.1957 123.688 89.1957Z" fill="#E4B475"/>
  <path d="M53.3103 11.6708L70.7809 33.3853L62.8601 11.6708H53.3103Z" fill="url(#paint0_linear)"/>
  <path d="M64.4331 11.6708L72.8594 34.788L81.4543 11.6708H64.4331Z" fill="url(#paint1_linear)"/>
  <path d="M74.7134 33.9464L92.6333 11.6708H83.0273L74.7134 33.9464Z" fill="url(#paint2_linear)"/>
  <path d="M85.836 0H74.5447L82.2969 9.53865L85.836 0Z" fill="url(#paint3_linear)"/>
  <path d="M80.9487 10.212L72.9718 0.448883L64.9949 10.212H80.9487Z" fill="url(#paint4_linear)"/>
  <path d="M71.4551 0H60.1638L63.6467 9.59476L71.4551 0Z" fill="url(#paint5_linear)"/>
  <path d="M58.9279 0.897766L53.1418 10.212H62.3546L58.9279 0.897766Z" fill="url(#paint6_linear)"/>
  <path d="M92.8578 10.212L87.0156 0.897766L83.5327 10.212H92.8578Z" fill="url(#paint7_linear)"/>
  <defs>
    <linearGradient id="paint0_linear" x1="52.3468" y1="22.682" x2="95.2831" y2="22.0596" gradientUnits="userSpaceOnUse">
      <stop offset="0.0162699" stop-color="#BA925C"/>
      <stop offset="0.0839855" stop-color="#BE955E"/>
      <stop offset="0.1513" stop-color="#CA9F66"/>
      <stop offset="0.2183" stop-color="#DEAF71"/>
      <stop offset="0.2549" stop-color="#ECBB7A"/>
      <stop offset="0.4834" stop-color="#956F40"/>
      <stop offset="0.6336" stop-color="#C99C62"/>
      <stop offset="0.7756" stop-color="#FDCA85"/>
      <stop offset="0.8027" stop-color="#E5B677"/>
      <stop offset="0.8342" stop-color="#D2A66B"/>
      <stop offset="0.8708" stop-color="#C49B62"/>
      <stop offset="0.9166" stop-color="#BC945D"/>
      <stop offset="1" stop-color="#BA925C"/>
    </linearGradient>
    <linearGradient id="paint1_linear" x1="52.3585" y1="23.48" x2="95.2947" y2="22.8577" gradientUnits="userSpaceOnUse">
      <stop offset="0.0162699" stop-color="#BA925C"/>
      <stop offset="0.0839855" stop-color="#BE955E"/>
      <stop offset="0.1513" stop-color="#CA9F66"/>
      <stop offset="0.2183" stop-color="#DEAF71"/>
      <stop offset="0.2549" stop-color="#ECBB7A"/>
      <stop offset="0.4834" stop-color="#956F40"/>
      <stop offset="0.6336" stop-color="#C99C62"/>
      <stop offset="0.7756" stop-color="#FDCA85"/>
      <stop offset="0.8027" stop-color="#E5B677"/>
      <stop offset="0.8342" stop-color="#D2A66B"/>
      <stop offset="0.8708" stop-color="#C49B62"/>
      <stop offset="0.9166" stop-color="#BC945D"/>
      <stop offset="1" stop-color="#BA925C"/>
    </linearGradient>
    <linearGradient id="paint2_linear" x1="52.3548" y1="23.2065" x2="95.2909" y2="22.5841" gradientUnits="userSpaceOnUse">
      <stop offset="0.0162699" stop-color="#BA925C"/>
      <stop offset="0.0839855" stop-color="#BE955E"/>
      <stop offset="0.1513" stop-color="#CA9F66"/>
      <stop offset="0.2183" stop-color="#DEAF71"/>
      <stop offset="0.2549" stop-color="#ECBB7A"/>
      <stop offset="0.4834" stop-color="#956F40"/>
      <stop offset="0.6336" stop-color="#C99C62"/>
      <stop offset="0.7756" stop-color="#FDCA85"/>
      <stop offset="0.8027" stop-color="#E5B677"/>
      <stop offset="0.8342" stop-color="#D2A66B"/>
      <stop offset="0.8708" stop-color="#C49B62"/>
      <stop offset="0.9166" stop-color="#BC945D"/>
      <stop offset="1" stop-color="#BA925C"/>
    </linearGradient>
    <linearGradient id="paint3_linear" x1="52.0929" y1="5.15918" x2="95.0291" y2="4.53675" gradientUnits="userSpaceOnUse">
      <stop offset="0.0162699" stop-color="#BA925C"/>
      <stop offset="0.0839855" stop-color="#BE955E"/>
      <stop offset="0.1513" stop-color="#CA9F66"/>
      <stop offset="0.2183" stop-color="#DEAF71"/>
      <stop offset="0.2549" stop-color="#ECBB7A"/>
      <stop offset="0.4834" stop-color="#956F40"/>
      <stop offset="0.6336" stop-color="#C99C62"/>
      <stop offset="0.7756" stop-color="#FDCA85"/>
      <stop offset="0.8027" stop-color="#E5B677"/>
      <stop offset="0.8342" stop-color="#D2A66B"/>
      <stop offset="0.8708" stop-color="#C49B62"/>
      <stop offset="0.9166" stop-color="#BC945D"/>
      <stop offset="1" stop-color="#BA925C"/>
    </linearGradient>
    <linearGradient id="paint4_linear" x1="52.1008" y1="5.70014" x2="95.0369" y2="5.0776" gradientUnits="userSpaceOnUse">
      <stop offset="0.0162699" stop-color="#BA925C"/>
      <stop offset="0.0839855" stop-color="#BE955E"/>
      <stop offset="0.1513" stop-color="#CA9F66"/>
      <stop offset="0.2183" stop-color="#DEAF71"/>
      <stop offset="0.2549" stop-color="#ECBB7A"/>
      <stop offset="0.4834" stop-color="#956F40"/>
      <stop offset="0.6336" stop-color="#C99C62"/>
      <stop offset="0.7756" stop-color="#FDCA85"/>
      <stop offset="0.8027" stop-color="#E5B677"/>
      <stop offset="0.8342" stop-color="#D2A66B"/>
      <stop offset="0.8708" stop-color="#C49B62"/>
      <stop offset="0.9166" stop-color="#BC945D"/>
      <stop offset="1" stop-color="#BA925C"/>
    </linearGradient>
    <linearGradient id="paint5_linear" x1="52.0899" y1="4.9482" x2="95.0261" y2="4.32567" gradientUnits="userSpaceOnUse">
      <stop offset="0.0162699" stop-color="#BA925C"/>
      <stop offset="0.0839855" stop-color="#BE955E"/>
      <stop offset="0.1513" stop-color="#CA9F66"/>
      <stop offset="0.2183" stop-color="#DEAF71"/>
      <stop offset="0.2549" stop-color="#ECBB7A"/>
      <stop offset="0.4834" stop-color="#956F40"/>
      <stop offset="0.6336" stop-color="#C99C62"/>
      <stop offset="0.7756" stop-color="#FDCA85"/>
      <stop offset="0.8027" stop-color="#E5B677"/>
      <stop offset="0.8342" stop-color="#D2A66B"/>
      <stop offset="0.8708" stop-color="#C49B62"/>
      <stop offset="0.9166" stop-color="#BC945D"/>
      <stop offset="1" stop-color="#BA925C"/>
    </linearGradient>
    <linearGradient id="paint6_linear" x1="52.1006" y1="5.68864" x2="95.0368" y2="5.06611" gradientUnits="userSpaceOnUse">
      <stop offset="0.0162699" stop-color="#BA925C"/>
      <stop offset="0.0839855" stop-color="#BE955E"/>
      <stop offset="0.1513" stop-color="#CA9F66"/>
      <stop offset="0.2183" stop-color="#DEAF71"/>
      <stop offset="0.2549" stop-color="#ECBB7A"/>
      <stop offset="0.4834" stop-color="#956F40"/>
      <stop offset="0.6336" stop-color="#C99C62"/>
      <stop offset="0.7756" stop-color="#FDCA85"/>
      <stop offset="0.8027" stop-color="#E5B677"/>
      <stop offset="0.8342" stop-color="#D2A66B"/>
      <stop offset="0.8708" stop-color="#C49B62"/>
      <stop offset="0.9166" stop-color="#BC945D"/>
      <stop offset="1" stop-color="#BA925C"/>
    </linearGradient>
    <linearGradient id="paint7_linear" x1="52.1067" y1="6.11261" x2="95.0428" y2="5.49018" gradientUnits="userSpaceOnUse">
      <stop offset="0.0162699" stop-color="#BA925C"/>
      <stop offset="0.0839855" stop-color="#BE955E"/>
      <stop offset="0.1513" stop-color="#CA9F66"/>
      <stop offset="0.2183" stop-color="#DEAF71"/>
      <stop offset="0.2549" stop-color="#ECBB7A"/>
      <stop offset="0.4834" stop-color="#956F40"/>
      <stop offset="0.6336" stop-color="#C99C62"/>
      <stop offset="0.7756" stop-color="#FDCA85"/>
      <stop offset="0.8027" stop-color="#E5B677"/>
      <stop offset="0.8342" stop-color="#D2A66B"/>
      <stop offset="0.8708" stop-color="#C49B62"/>
      <stop offset="0.9166" stop-color="#BC945D"/>
      <stop offset="1" stop-color="#BA925C"/>
    </linearGradient>
  </defs>
</svg>
