<svg fill="#fff" viewBox="0 0 480.276 480.276" xmlns="http://www.w3.org/2000/svg">
    <path
            d="M468.259 211.026l-.145-.145c-32.914-34.482-99.788-91.429-178.678-91.429-45.453 0-94.563 19.853-141.584 57.469a381.386 381.386 0 00-45.453 42.318 265.995 265.995 0 00-19.331-33.437c-23.51-35.004-48.065-52.767-72.62-52.767C4.678 133.036 0 137.714 0 143.485v193.306c0 5.771 4.678 10.449 10.449 10.449 24.555 0 49.11-17.763 72.62-52.767a265.976 265.976 0 0019.331-33.437 381.386 381.386 0 0045.453 42.318c47.02 37.616 96.131 57.469 141.584 57.469 78.89 0 145.763-56.947 178.678-91.429 16.158-16.077 16.222-42.21.144-58.368zM87.771 242.75c-11.494 25.078-35.526 72.098-66.873 82.024V155.501c31.347 9.927 55.38 56.947 67.396 82.024a17.79 17.79 0 00-.523 5.225zm201.666 97.176c-84.637 0-157.78-76.8-177.633-99.788 19.853-22.988 92.996-99.788 177.633-99.788 29.71.801 58.77 8.874 84.637 23.51-23.51 12.539-40.229 42.318-40.229 76.278s16.718 63.739 40.229 76.278a181.83 181.83 0 01-84.637 23.51zm164.049-84.637a389.766 389.766 0 01-55.38 46.498c-24.033-1.567-43.363-28.735-43.363-61.649s19.331-60.082 43.363-61.649a389.766 389.766 0 0155.38 46.498c7.837 8.58 7.837 21.721 0 30.302z"/>
    <path
            d="M400.718 202.521c-15.293 0-27.69 12.397-27.69 27.69s12.397 27.69 27.69 27.69 27.69-12.397 27.69-27.69c0-15.292-12.397-27.69-27.69-27.69zm0 34.482a6.792 6.792 0 110-13.584 6.792 6.792 0 010 13.584z"/>
</svg>
