<svg fill="#fff" viewBox="0 0 480 480" xmlns="http://www.w3.org/2000/svg">
    <path
            d="M413.656 34.344l-32-32A8 8 0 00376 0H72a8 8 0 00-8 8v432a8 8 0 002.344 5.656l32 32A8 8 0 00104 480h304a8 8 0 008-8V40a8 8 0 00-2.344-5.656zM312 27.312L388.688 104H312V27.312zM400 464H107.312L80 436.688V16h216v96a8 8 0 008 8h96v344zm0-371.312L323.312 16h49.376L400 43.312v49.376z"/>
    <path
            d="M344 136H136a8 8 0 000 16h208a8 8 0 000-16zM344 184H136a8 8 0 000 16h208a8 8 0 000-16zM344 232H136a8 8 0 000 16h208a8 8 0 000-16zM344 280H136a8 8 0 000 16h208a8 8 0 000-16zM344 328H136a8 8 0 000 16h208a8 8 0 000-16zM344 376H136a8 8 0 000 16h208a8 8 0 000-16zM240 56c-17.673 0-32 14.327-32 32s14.327 32 32 32c17.673 0 32-14.327 32-32s-14.327-32-32-32zm0 48c-8.837 0-16-7.163-16-16s7.163-16 16-16 16 7.163 16 16-7.163 16-16 16z"/>
</svg>